<svg width="152" height="43" viewBox="0 0 152 43" fill="none" xmlns="http://www.w3.org/2000/svg">
<path d="M55.7611 10.9709V11.9009H52.8111V13.9509H55.1111V14.8809H52.8111V17.9209H51.6711V10.9709H55.7611ZM57.3975 11.6809C57.1909 11.6809 57.0175 11.6109 56.8775 11.4709C56.7375 11.3309 56.6675 11.1576 56.6675 10.9509C56.6675 10.7442 56.7375 10.5709 56.8775 10.4309C57.0175 10.2909 57.1909 10.2209 57.3975 10.2209C57.5975 10.2209 57.7675 10.2909 57.9075 10.4309C58.0475 10.5709 58.1175 10.7442 58.1175 10.9509C58.1175 11.1576 58.0475 11.3309 57.9075 11.4709C57.7675 11.6109 57.5975 11.6809 57.3975 11.6809ZM57.9575 12.4109V17.9209H56.8175V12.4109H57.9575ZM60.5943 13.2109C60.7609 12.9309 60.9809 12.7142 61.2543 12.5609C61.5343 12.4009 61.8643 12.3209 62.2443 12.3209V13.5009H61.9543C61.5076 13.5009 61.1676 13.6142 60.9343 13.8409C60.7076 14.0676 60.5943 14.4609 60.5943 15.0209V17.9209H59.4543V12.4109H60.5943V13.2109ZM68.3421 15.0309C68.3421 15.2376 68.3288 15.4242 68.3021 15.5909H64.0921C64.1255 16.0309 64.2888 16.3842 64.5821 16.6509C64.8755 16.9176 65.2355 17.0509 65.6621 17.0509C66.2755 17.0509 66.7088 16.7942 66.9621 16.2809H68.1921C68.0255 16.7876 67.7221 17.2042 67.2821 17.5309C66.8488 17.8509 66.3088 18.0109 65.6621 18.0109C65.1355 18.0109 64.6621 17.8942 64.2421 17.6609C63.8288 17.4209 63.5021 17.0876 63.2621 16.6609C63.0288 16.2276 62.9121 15.7276 62.9121 15.1609C62.9121 14.5942 63.0255 14.0976 63.2521 13.6709C63.4855 13.2376 63.8088 12.9042 64.2221 12.6709C64.6421 12.4376 65.1221 12.3209 65.6621 12.3209C66.1821 12.3209 66.6455 12.4342 67.0521 12.6609C67.4588 12.8876 67.7755 13.2076 68.0021 13.6209C68.2288 14.0276 68.3421 14.4976 68.3421 15.0309ZM67.1521 14.6709C67.1455 14.2509 66.9955 13.9142 66.7021 13.6609C66.4088 13.4076 66.0455 13.2809 65.6121 13.2809C65.2188 13.2809 64.8821 13.4076 64.6021 13.6609C64.3221 13.9076 64.1555 14.2442 64.1021 14.6709H67.1521ZM74.3517 17.9909C73.885 17.9909 73.465 17.9109 73.0917 17.7509C72.7183 17.5842 72.425 17.3509 72.2117 17.0509C71.9983 16.7509 71.8917 16.4009 71.8917 16.0009H73.1117C73.1383 16.3009 73.255 16.5476 73.4617 16.7409C73.675 16.9342 73.9717 17.0309 74.3517 17.0309C74.745 17.0309 75.0517 16.9376 75.2717 16.7509C75.4917 16.5576 75.6017 16.3109 75.6017 16.0109C75.6017 15.7776 75.5317 15.5876 75.3917 15.4409C75.2583 15.2942 75.0883 15.1809 74.8817 15.1009C74.6817 15.0209 74.4017 14.9342 74.0417 14.8409C73.5883 14.7209 73.2183 14.6009 72.9317 14.4809C72.6517 14.3542 72.4117 14.1609 72.2117 13.9009C72.0117 13.6409 71.9117 13.2942 71.9117 12.8609C71.9117 12.4609 72.0117 12.1109 72.2117 11.8109C72.4117 11.5109 72.6917 11.2809 73.0517 11.1209C73.4117 10.9609 73.8283 10.8809 74.3017 10.8809C74.975 10.8809 75.525 11.0509 75.9517 11.3909C76.385 11.7242 76.625 12.1842 76.6717 12.7709H75.4117C75.3917 12.5176 75.2717 12.3009 75.0517 12.1209C74.8317 11.9409 74.5417 11.8509 74.1817 11.8509C73.855 11.8509 73.5883 11.9342 73.3817 12.1009C73.175 12.2676 73.0717 12.5076 73.0717 12.8209C73.0717 13.0342 73.135 13.2109 73.2617 13.3509C73.395 13.4842 73.5617 13.5909 73.7617 13.6709C73.9617 13.7509 74.235 13.8376 74.5817 13.9309C75.0417 14.0576 75.415 14.1842 75.7017 14.3109C75.995 14.4376 76.2417 14.6342 76.4417 14.9009C76.6483 15.1609 76.7517 15.5109 76.7517 15.9509C76.7517 16.3042 76.655 16.6376 76.4617 16.9509C76.275 17.2642 75.9983 17.5176 75.6317 17.7109C75.2717 17.8976 74.845 17.9909 74.3517 17.9909ZM77.7168 15.1409C77.7168 14.5876 77.8302 14.0976 78.0568 13.6709C78.2902 13.2442 78.6035 12.9142 78.9968 12.6809C79.3968 12.4409 79.8368 12.3209 80.3168 12.3209C80.7502 12.3209 81.1268 12.4076 81.4468 12.5809C81.7735 12.7476 82.0335 12.9576 82.2268 13.2109V12.4109H83.3768V17.9209H82.2268V17.1009C82.0335 17.3609 81.7702 17.5776 81.4368 17.7509C81.1035 17.9242 80.7235 18.0109 80.2968 18.0109C79.8235 18.0109 79.3902 17.8909 78.9968 17.6509C78.6035 17.4042 78.2902 17.0642 78.0568 16.6309C77.8302 16.1909 77.7168 15.6942 77.7168 15.1409ZM82.2268 15.1609C82.2268 14.7809 82.1468 14.4509 81.9868 14.1709C81.8335 13.8909 81.6302 13.6776 81.3768 13.5309C81.1235 13.3842 80.8502 13.3109 80.5568 13.3109C80.2635 13.3109 79.9902 13.3842 79.7368 13.5309C79.4835 13.6709 79.2768 13.8809 79.1168 14.1609C78.9635 14.4342 78.8868 14.7609 78.8868 15.1409C78.8868 15.5209 78.9635 15.8542 79.1168 16.1409C79.2768 16.4276 79.4835 16.6476 79.7368 16.8009C79.9968 16.9476 80.2702 17.0209 80.5568 17.0209C80.8502 17.0209 81.1235 16.9476 81.3768 16.8009C81.6302 16.6542 81.8335 16.4409 81.9868 16.1609C82.1468 15.8742 82.2268 15.5409 82.2268 15.1609ZM87.1842 13.3409H86.1642V17.9209H85.0142V13.3409H84.3642V12.4109H85.0142V12.0209C85.0142 11.3876 85.1808 10.9276 85.5142 10.6409C85.8542 10.3476 86.3842 10.2009 87.1042 10.2009V11.1509C86.7575 11.1509 86.5142 11.2176 86.3742 11.3509C86.2342 11.4776 86.1642 11.7009 86.1642 12.0209V12.4109H87.1842V13.3409ZM93.2445 15.0309C93.2445 15.2376 93.2312 15.4242 93.2045 15.5909H88.9945C89.0278 16.0309 89.1912 16.3842 89.4845 16.6509C89.7778 16.9176 90.1378 17.0509 90.5645 17.0509C91.1778 17.0509 91.6112 16.7942 91.8645 16.2809H93.0945C92.9278 16.7876 92.6245 17.2042 92.1845 17.5309C91.7512 17.8509 91.2112 18.0109 90.5645 18.0109C90.0378 18.0109 89.5645 17.8942 89.1445 17.6609C88.7312 17.4209 88.4045 17.0876 88.1645 16.6609C87.9312 16.2276 87.8145 15.7276 87.8145 15.1609C87.8145 14.5942 87.9278 14.0976 88.1545 13.6709C88.3878 13.2376 88.7112 12.9042 89.1245 12.6709C89.5445 12.4376 90.0245 12.3209 90.5645 12.3209C91.0845 12.3209 91.5478 12.4342 91.9545 12.6609C92.3612 12.8876 92.6778 13.2076 92.9045 13.6209C93.1312 14.0276 93.2445 14.4976 93.2445 15.0309ZM92.0545 14.6709C92.0478 14.2509 91.8978 13.9142 91.6045 13.6609C91.3112 13.4076 90.9478 13.2809 90.5145 13.2809C90.1212 13.2809 89.7845 13.4076 89.5045 13.6609C89.2245 13.9076 89.0578 14.2442 89.0045 14.6709H92.0545ZM95.6964 13.3409V16.3909C95.6964 16.5976 95.743 16.7476 95.8364 16.8409C95.9364 16.9276 96.103 16.9709 96.3364 16.9709H97.0364V17.9209H96.1364C95.623 17.9209 95.2297 17.8009 94.9564 17.5609C94.683 17.3209 94.5464 16.9309 94.5464 16.3909V13.3409H93.8964V12.4109H94.5464V11.0409H95.6964V12.4109H97.0364V13.3409H95.6964ZM103.047 12.4109L99.6671 20.5109H98.4871L99.6071 17.8309L97.4371 12.4109H98.7071L100.257 16.6109L101.867 12.4109H103.047ZM53.9411 22.9709C54.6811 22.9709 55.3277 23.1142 55.8811 23.4009C56.4411 23.6809 56.8711 24.0876 57.1711 24.6209C57.4777 25.1476 57.6311 25.7642 57.6311 26.4709C57.6311 27.1776 57.4777 27.7909 57.1711 28.3109C56.8711 28.8309 56.4411 29.2309 55.8811 29.5109C55.3277 29.7842 54.6811 29.9209 53.9411 29.9209H51.6711V22.9709H53.9411ZM53.9411 28.9909C54.7544 28.9909 55.3777 28.7709 55.8111 28.3309C56.2444 27.8909 56.4611 27.2709 56.4611 26.4709C56.4611 25.6642 56.2444 25.0342 55.8111 24.5809C55.3777 24.1276 54.7544 23.9009 53.9411 23.9009H52.8111V28.9909H53.9411ZM63.8109 27.0309C63.8109 27.2376 63.7976 27.4242 63.7709 27.5909H59.5609C59.5942 28.0309 59.7576 28.3842 60.0509 28.6509C60.3442 28.9176 60.7042 29.0509 61.1309 29.0509C61.7442 29.0509 62.1776 28.7942 62.4309 28.2809H63.6609C63.4942 28.7876 63.1909 29.2042 62.7509 29.5309C62.3176 29.8509 61.7776 30.0109 61.1309 30.0109C60.6042 30.0109 60.1309 29.8942 59.7109 29.6609C59.2976 29.4209 58.9709 29.0876 58.7309 28.6609C58.4976 28.2276 58.3809 27.7276 58.3809 27.1609C58.3809 26.5942 58.4942 26.0976 58.7209 25.6709C58.9542 25.2376 59.2776 24.9042 59.6909 24.6709C60.1109 24.4376 60.5909 24.3209 61.1309 24.3209C61.6509 24.3209 62.1142 24.4342 62.5209 24.6609C62.9276 24.8876 63.2442 25.2076 63.4709 25.6209C63.6976 26.0276 63.8109 26.4976 63.8109 27.0309ZM62.6209 26.6709C62.6142 26.2509 62.4642 25.9142 62.1709 25.6609C61.8776 25.4076 61.5142 25.2809 61.0809 25.2809C60.6876 25.2809 60.3509 25.4076 60.0709 25.6609C59.7909 25.9076 59.6242 26.2442 59.5709 26.6709H62.6209ZM66.2628 25.3409V28.3909C66.2628 28.5976 66.3094 28.7476 66.4028 28.8409C66.5028 28.9276 66.6694 28.9709 66.9028 28.9709H67.6028V29.9209H66.7028C66.1894 29.9209 65.7961 29.8009 65.5228 29.5609C65.2494 29.3209 65.1128 28.9309 65.1128 28.3909V25.3409H64.4628V24.4109H65.1128V23.0409H66.2628V24.4109H67.6028V25.3409H66.2628ZM73.7035 27.0309C73.7035 27.2376 73.6901 27.4242 73.6635 27.5909H69.4535C69.4868 28.0309 69.6501 28.3842 69.9435 28.6509C70.2368 28.9176 70.5968 29.0509 71.0235 29.0509C71.6368 29.0509 72.0701 28.7942 72.3235 28.2809H73.5535C73.3868 28.7876 73.0835 29.2042 72.6435 29.5309C72.2101 29.8509 71.6701 30.0109 71.0235 30.0109C70.4968 30.0109 70.0235 29.8942 69.6035 29.6609C69.1901 29.4209 68.8635 29.0876 68.6235 28.6609C68.3901 28.2276 68.2735 27.7276 68.2735 27.1609C68.2735 26.5942 68.3868 26.0976 68.6135 25.6709C68.8468 25.2376 69.1701 24.9042 69.5835 24.6709C70.0035 24.4376 70.4835 24.3209 71.0235 24.3209C71.5435 24.3209 72.0068 24.4342 72.4135 24.6609C72.8201 24.8876 73.1368 25.2076 73.3635 25.6209C73.5901 26.0276 73.7035 26.4976 73.7035 27.0309ZM72.5135 26.6709C72.5068 26.2509 72.3568 25.9142 72.0635 25.6609C71.7701 25.4076 71.4068 25.2809 70.9735 25.2809C70.5801 25.2809 70.2435 25.4076 69.9635 25.6609C69.6835 25.9076 69.5168 26.2442 69.4635 26.6709H72.5135ZM74.4453 27.1609C74.4453 26.5942 74.5587 26.0976 74.7853 25.6709C75.0187 25.2376 75.3387 24.9042 75.7453 24.6709C76.152 24.4376 76.6187 24.3209 77.1453 24.3209C77.812 24.3209 78.362 24.4809 78.7953 24.8009C79.2353 25.1142 79.532 25.5642 79.6853 26.1509H78.4553C78.3553 25.8776 78.1953 25.6642 77.9753 25.5109C77.7553 25.3576 77.4787 25.2809 77.1453 25.2809C76.6787 25.2809 76.3053 25.4476 76.0253 25.7809C75.752 26.1076 75.6153 26.5676 75.6153 27.1609C75.6153 27.7542 75.752 28.2176 76.0253 28.5509C76.3053 28.8842 76.6787 29.0509 77.1453 29.0509C77.8053 29.0509 78.242 28.7609 78.4553 28.1809H79.6853C79.5253 28.7409 79.2253 29.1876 78.7853 29.5209C78.3453 29.8476 77.7987 30.0109 77.1453 30.0109C76.6187 30.0109 76.152 29.8942 75.7453 29.6609C75.3387 29.4209 75.0187 29.0876 74.7853 28.6609C74.5587 28.2276 74.4453 27.7276 74.4453 27.1609ZM82.1514 25.3409V28.3909C82.1514 28.5976 82.1981 28.7476 82.2914 28.8409C82.3914 28.9276 82.5581 28.9709 82.7914 28.9709H83.4914V29.9209H82.5914C82.0781 29.9209 81.6848 29.8009 81.4114 29.5609C81.1381 29.3209 81.0014 28.9309 81.0014 28.3909V25.3409H80.3514V24.4109H81.0014V23.0409H82.1514V24.4109H83.4914V25.3409H82.1514ZM85.1221 23.6809C84.9155 23.6809 84.7421 23.6109 84.6021 23.4709C84.4621 23.3309 84.3921 23.1576 84.3921 22.9509C84.3921 22.7442 84.4621 22.5709 84.6021 22.4309C84.7421 22.2909 84.9155 22.2209 85.1221 22.2209C85.3221 22.2209 85.4921 22.2909 85.6321 22.4309C85.7721 22.5709 85.8421 22.7442 85.8421 22.9509C85.8421 23.1576 85.7721 23.3309 85.6321 23.4709C85.4921 23.6109 85.3221 23.6809 85.1221 23.6809ZM85.6821 24.4109V29.9209H84.5421V24.4109H85.6821ZM89.5689 30.0109C89.0489 30.0109 88.5789 29.8942 88.1589 29.6609C87.7389 29.4209 87.4089 29.0876 87.1689 28.6609C86.9289 28.2276 86.8089 27.7276 86.8089 27.1609C86.8089 26.6009 86.9322 26.1042 87.1789 25.6709C87.4255 25.2376 87.7622 24.9042 88.1889 24.6709C88.6155 24.4376 89.0922 24.3209 89.6189 24.3209C90.1455 24.3209 90.6222 24.4376 91.0489 24.6709C91.4755 24.9042 91.8122 25.2376 92.0589 25.6709C92.3055 26.1042 92.4289 26.6009 92.4289 27.1609C92.4289 27.7209 92.3022 28.2176 92.0489 28.6509C91.7955 29.0842 91.4489 29.4209 91.0089 29.6609C90.5755 29.8942 90.0955 30.0109 89.5689 30.0109ZM89.5689 29.0209C89.8622 29.0209 90.1355 28.9509 90.3889 28.8109C90.6489 28.6709 90.8589 28.4609 91.0189 28.1809C91.1789 27.9009 91.2589 27.5609 91.2589 27.1609C91.2589 26.7609 91.1822 26.4242 91.0289 26.1509C90.8755 25.8709 90.6722 25.6609 90.4189 25.5209C90.1655 25.3809 89.8922 25.3109 89.5989 25.3109C89.3055 25.3109 89.0322 25.3809 88.7789 25.5209C88.5322 25.6609 88.3355 25.8709 88.1889 26.1509C88.0422 26.4242 87.9689 26.7609 87.9689 27.1609C87.9689 27.7542 88.1189 28.2142 88.4189 28.5409C88.7255 28.8609 89.1089 29.0209 89.5689 29.0209ZM96.3358 24.3209C96.7692 24.3209 97.1558 24.4109 97.4958 24.5909C97.8425 24.7709 98.1125 25.0376 98.3058 25.3909C98.4992 25.7442 98.5958 26.1709 98.5958 26.6709V29.9209H97.4658V26.8409C97.4658 26.3476 97.3425 25.9709 97.0958 25.7109C96.8492 25.4442 96.5125 25.3109 96.0858 25.3109C95.6592 25.3109 95.3192 25.4442 95.0658 25.7109C94.8192 25.9709 94.6958 26.3476 94.6958 26.8409V29.9209H93.5558V24.4109H94.6958V25.0409C94.8825 24.8142 95.1192 24.6376 95.4058 24.5109C95.6992 24.3842 96.0092 24.3209 96.3358 24.3209ZM104.938 29.9909C104.471 29.9909 104.051 29.9109 103.678 29.7509C103.304 29.5842 103.011 29.3509 102.798 29.0509C102.584 28.7509 102.478 28.4009 102.478 28.0009H103.698C103.724 28.3009 103.841 28.5476 104.048 28.7409C104.261 28.9342 104.558 29.0309 104.938 29.0309C105.331 29.0309 105.638 28.9376 105.858 28.7509C106.078 28.5576 106.188 28.3109 106.188 28.0109C106.188 27.7776 106.118 27.5876 105.978 27.4409C105.844 27.2942 105.674 27.1809 105.468 27.1009C105.268 27.0209 104.988 26.9342 104.628 26.8409C104.174 26.7209 103.804 26.6009 103.518 26.4809C103.238 26.3542 102.998 26.1609 102.798 25.9009C102.598 25.6409 102.498 25.2942 102.498 24.8609C102.498 24.4609 102.598 24.1109 102.798 23.8109C102.998 23.5109 103.278 23.2809 103.638 23.1209C103.998 22.9609 104.414 22.8809 104.888 22.8809C105.561 22.8809 106.111 23.0509 106.538 23.3909C106.971 23.7242 107.211 24.1842 107.258 24.7709H105.998C105.978 24.5176 105.858 24.3009 105.638 24.1209C105.418 23.9409 105.128 23.8509 104.768 23.8509C104.441 23.8509 104.174 23.9342 103.968 24.1009C103.761 24.2676 103.658 24.5076 103.658 24.8209C103.658 25.0342 103.721 25.2109 103.848 25.3509C103.981 25.4842 104.148 25.5909 104.348 25.6709C104.548 25.7509 104.821 25.8376 105.168 25.9309C105.628 26.0576 106.001 26.1842 106.288 26.3109C106.581 26.4376 106.828 26.6342 107.028 26.9009C107.234 27.1609 107.338 27.5109 107.338 27.9509C107.338 28.3042 107.241 28.6376 107.048 28.9509C106.861 29.2642 106.584 29.5176 106.218 29.7109C105.858 29.8976 105.431 29.9909 104.938 29.9909ZM113.643 24.4109L110.263 32.5109H109.083L110.203 29.8309L108.033 24.4109H109.303L110.853 28.6109L112.463 24.4109H113.643ZM116.503 30.0109C116.07 30.0109 115.68 29.9342 115.333 29.7809C114.993 29.6209 114.723 29.4076 114.523 29.1409C114.323 28.8676 114.216 28.5642 114.203 28.2309H115.383C115.403 28.4642 115.513 28.6609 115.713 28.8209C115.92 28.9742 116.176 29.0509 116.483 29.0509C116.803 29.0509 117.05 28.9909 117.223 28.8709C117.403 28.7442 117.493 28.5842 117.493 28.3909C117.493 28.1842 117.393 28.0309 117.193 27.9309C117 27.8309 116.69 27.7209 116.263 27.6009C115.85 27.4876 115.513 27.3776 115.253 27.2709C114.993 27.1642 114.766 27.0009 114.573 26.7809C114.386 26.5609 114.293 26.2709 114.293 25.9109C114.293 25.6176 114.38 25.3509 114.553 25.1109C114.726 24.8642 114.973 24.6709 115.293 24.5309C115.62 24.3909 115.993 24.3209 116.413 24.3209C117.04 24.3209 117.543 24.4809 117.923 24.8009C118.31 25.1142 118.516 25.5442 118.543 26.0909H117.403C117.383 25.8442 117.283 25.6476 117.103 25.5009C116.923 25.3542 116.68 25.2809 116.373 25.2809C116.073 25.2809 115.843 25.3376 115.683 25.4509C115.523 25.5642 115.443 25.7142 115.443 25.9009C115.443 26.0476 115.496 26.1709 115.603 26.2709C115.71 26.3709 115.84 26.4509 115.993 26.5109C116.146 26.5642 116.373 26.6342 116.673 26.7209C117.073 26.8276 117.4 26.9376 117.653 27.0509C117.913 27.1576 118.136 27.3176 118.323 27.5309C118.51 27.7442 118.606 28.0276 118.613 28.3809C118.613 28.6942 118.526 28.9742 118.353 29.2209C118.18 29.4676 117.933 29.6609 117.613 29.8009C117.3 29.9409 116.93 30.0109 116.503 30.0109ZM121.175 25.3409V28.3909C121.175 28.5976 121.222 28.7476 121.315 28.8409C121.415 28.9276 121.582 28.9709 121.815 28.9709H122.515V29.9209H121.615C121.102 29.9209 120.708 29.8009 120.435 29.5609C120.162 29.3209 120.025 28.9309 120.025 28.3909V25.3409H119.375V24.4109H120.025V23.0409H121.175V24.4109H122.515V25.3409H121.175ZM128.616 27.0309C128.616 27.2376 128.602 27.4242 128.576 27.5909H124.366C124.399 28.0309 124.562 28.3842 124.856 28.6509C125.149 28.9176 125.509 29.0509 125.936 29.0509C126.549 29.0509 126.982 28.7942 127.236 28.2809H128.466C128.299 28.7876 127.996 29.2042 127.556 29.5309C127.122 29.8509 126.582 30.0109 125.936 30.0109C125.409 30.0109 124.936 29.8942 124.516 29.6609C124.102 29.4209 123.776 29.0876 123.536 28.6609C123.302 28.2276 123.186 27.7276 123.186 27.1609C123.186 26.5942 123.299 26.0976 123.526 25.6709C123.759 25.2376 124.082 24.9042 124.496 24.6709C124.916 24.4376 125.396 24.3209 125.936 24.3209C126.456 24.3209 126.919 24.4342 127.326 24.6609C127.732 24.8876 128.049 25.2076 128.276 25.6209C128.502 26.0276 128.616 26.4976 128.616 27.0309ZM127.426 26.6709C127.419 26.2509 127.269 25.9142 126.976 25.6609C126.682 25.4076 126.319 25.2809 125.886 25.2809C125.492 25.2809 125.156 25.4076 124.876 25.6609C124.596 25.9076 124.429 26.2442 124.376 26.6709H127.426ZM136.407 24.3209C136.841 24.3209 137.227 24.4109 137.567 24.5909C137.914 24.7709 138.184 25.0376 138.377 25.3909C138.577 25.7442 138.677 26.1709 138.677 26.6709V29.9209H137.547V26.8409C137.547 26.3476 137.424 25.9709 137.177 25.7109C136.931 25.4442 136.594 25.3109 136.167 25.3109C135.741 25.3109 135.401 25.4442 135.147 25.7109C134.901 25.9709 134.777 26.3476 134.777 26.8409V29.9209H133.647V26.8409C133.647 26.3476 133.524 25.9709 133.277 25.7109C133.031 25.4442 132.694 25.3109 132.267 25.3109C131.841 25.3109 131.501 25.4442 131.247 25.7109C131.001 25.9709 130.877 26.3476 130.877 26.8409V29.9209H129.737V24.4109H130.877V25.0409C131.064 24.8142 131.301 24.6376 131.587 24.5109C131.874 24.3842 132.181 24.3209 132.507 24.3209C132.947 24.3209 133.341 24.4142 133.687 24.6009C134.034 24.7876 134.301 25.0576 134.487 25.4109C134.654 25.0776 134.914 24.8142 135.267 24.6209C135.621 24.4209 136.001 24.3209 136.407 24.3209Z" fill="black"/>
<g clip-path="url(#clip0_54_172)">
<path d="M21.6015 38.4939C30.9307 38.4939 38.4935 30.9311 38.4935 21.602C38.4935 12.2728 30.9307 4.70996 21.6015 4.70996C12.2724 4.70996 4.70955 12.2728 4.70955 21.602C4.70955 30.9311 12.2724 38.4939 21.6015 38.4939Z" fill="#00274F"/>
</g>
<g clip-path="url(#clip1_54_172)">
<mask id="mask0_54_172" style="mask-type:luminance" maskUnits="userSpaceOnUse" x="-9" y="-9" width="61" height="61">
<g clip-path="url(#clip2_54_172)">
<g clip-path="url(#clip3_54_172)">
<g clip-path="url(#clip4_54_172)">
<g clip-path="url(#clip5_54_172)">
<g clip-path="url(#clip6_54_172)">
<path d="M24.6454 24.9894C31.4931 13.8931 19.8516 9.1084 19.8516 9.1084C22.8458 11.6056 23.8907 20.1008 18.4072 20.2133C14.5172 20.2931 15.1924 16.1218 15.6106 15.2418C15.1727 15.8623 12.2265 21.0786 13.4507 26.3398C14.675 31.6013 22.0763 33.6862 22.0763 33.6862C20.5453 29.0992 23.4728 26.8732 24.6454 24.9894Z" fill="white"/>
<path d="M27.7177 18.4717C28.3244 19.5996 27.0786 24.32 25.2593 26.4694C21.8858 30.4645 22.9497 32.4906 23.2131 33.4331C23.2547 33.3346 23.6923 32.8765 26.8034 30.7449C33.5293 26.148 27.7177 18.4717 27.7177 18.4717Z" fill="white"/>
<path d="M23.2212 33.46C23.2189 33.4512 23.2157 33.4419 23.2134 33.4326C23.2011 33.4608 23.2212 33.46 23.2212 33.46Z" fill="white"/>
<path d="M15.6106 15.2419C15.6466 15.1904 15.669 15.1611 15.669 15.1611C15.6444 15.1801 15.6261 15.2079 15.6106 15.2419Z" fill="white"/>
</g>
</g>
</g>
</g>
</g>
</mask>
<g mask="url(#mask0_54_172)">
<path d="M43 0H0V43H43V0Z" fill="url(#paint0_linear_54_172)"/>
</g>
</g>
<line x1="43.5" y1="12.4473" x2="43.5" y2="31.6841" stroke="black"/>
<defs>
<linearGradient id="paint0_linear_54_172" x1="0" y1="21.5" x2="43" y2="21.5" gradientUnits="userSpaceOnUse">
<stop stop-color="#FFA62E"/>
<stop offset="1" stop-color="#F71B3D"/>
</linearGradient>
<clipPath id="clip0_54_172">
<rect width="33.784" height="33.784" fill="white" transform="translate(4.70955 4.70996)"/>
</clipPath>
<clipPath id="clip1_54_172">
<rect width="43" height="43" fill="white"/>
</clipPath>
<clipPath id="clip2_54_172">
<rect width="59.5857" height="59.5857" fill="white" transform="translate(-8.19048 -8.39551)"/>
</clipPath>
<clipPath id="clip3_54_172">
<rect width="59.5857" height="59.5857" fill="white" transform="translate(-8.19048 -8.39551)"/>
</clipPath>
<clipPath id="clip4_54_172">
<rect width="59.5857" height="59.5857" fill="white" transform="translate(-8.19048 -8.39551)"/>
</clipPath>
<clipPath id="clip5_54_172">
<rect width="59.5857" height="59.5857" fill="white" transform="translate(-8.19048 -8.39551)"/>
</clipPath>
<clipPath id="clip6_54_172">
<rect width="24.5778" height="24.5778" fill="white" transform="translate(9.31345 9.1084)"/>
</clipPath>
</defs>
</svg>
